<?xml version="1.0" encoding="utf-8"?>
<!-- Generator: Adobe Illustrator 21.1.0, SVG Export Plug-In . SVG Version: 6.00 Build 0)  -->
<svg version="1.1" id="icons" xmlns="http://www.w3.org/2000/svg" xmlns:xlink="http://www.w3.org/1999/xlink" x="0px" y="0px"
	 viewBox="0 0 58 64" style="enable-background:new 0 0 58 64;" xml:space="preserve">
<style type="text/css">
	.st0{fill:none;stroke:#ffffff;stroke-width:2;stroke-miterlimit:10;}
</style>
<title>sq 179, confirmation, check mark, agree, confirm, paper, hand</title>
<g>
	<line class="st0" x1="26" y1="11" x2="38" y2="11"/>
	<line class="st0" x1="30" y1="7" x2="38" y2="7"/>
</g>
<line class="st0" x1="8" y1="11" x2="12" y2="11"/>
<polyline class="st0" points="30,63 1,63 1,12.8 11,5 11,3 1,3 1,10 "/>
<polyline class="st0" points="43,34 43,1 18.1,1 15,1 15,15 1,15 "/>
<polyline class="st0" points="24,37.1 25.4,35.7 34,27 31,24 19.1,35.9 14.3,31.1 11.3,34.1 19,42 19.1,42 19.1,42 22.8,38.3 "/>
<line class="st0" x1="14" y1="50" x2="6" y2="50"/>
<line class="st0" x1="14" y1="54" x2="6" y2="54"/>
<g>
	<path class="st0" d="M34.5,59L34.5,59c-1.1,0-2,0.9-2,2l0,0c0,1.1,0.9,2,2,2h3.7c2.8,0,5.7-0.5,8.4-1.4l1.9-0.6h2"/>
	<path class="st0" d="M34.5,55H33c-1.1,0-2,0.9-2,2l0,0c0,1.1,0.9,2,2,2h2.5"/>
	<path class="st0" d="M35.5,51H32c-1.1,0-2,0.9-2,2l0,0c0,1.1,0.9,2,2,2h3.5"/>
	<path class="st0" d="M50.4,47.6h-3.3c-0.5,0-0.9-0.3-1.1-0.8l-2.5-6.3V37l0,0c-1.4,0-2.6,0.9-2.9,2.3l-0.5,1.9
		C40,41.4,40,41.7,40,42l1,3.9c0,0.6-0.5,1.2-1.2,1.2L32,47c-1.1,0-2,0.9-2,2l0,0c0,1.1,0.9,2,2,2h3.5"/>
	<path class="st0" d="M58,45h-5.5c-1.1,0-2,0.9-2,2v14c0,1.1,0.9,2,2,2H58"/>
</g>
</svg>
