<?xml version="1.0" encoding="utf-8"?>
<!-- Generator: Adobe Illustrator 21.1.0, SVG Export Plug-In . SVG Version: 6.00 Build 0)  -->
<svg version="1.1" id="icons" xmlns="http://www.w3.org/2000/svg" xmlns:xlink="http://www.w3.org/1999/xlink" x="0px" y="0px"
	 viewBox="0 0 64.3 59" style="enable-background:new 0 0 64.3 59;" xml:space="preserve">
<style type="text/css">
	.st0{fill:none;stroke:#4ac54a;stroke-width:2;stroke-miterlimit:10;}
</style>
<title>sq 239 ,contact us, phone, cursor, call,  phone number</title>
<g>
	<g>
		<path class="st0" d="M16.3,16.9h-14c-0.6,0-1-0.4-1-1v-3h16v3C17.3,16.5,16.9,16.9,16.3,16.9z"/>
		<path class="st0" d="M48.3,16.9h14c0.6,0,1-0.4,1-1v-3h-16v3C47.3,16.5,47.7,16.9,48.3,16.9z"/>
		<path class="st0" d="M47.3,12.9v-4c-8.6-1.3-21.4-1.3-30,0v4"/>
		<path class="st0" d="M63.3,12.9V10c0-2.9-2.1-5.5-5-5.9L46,2.1c-9-1.5-18.2-1.5-27.2,0l-12.3,2c-2.9,0.5-5,3-5,5.9v2.9"/>
	</g>
	<line class="st0" x1="45.3" y1="39.9" x2="18.4" y2="39.9"/>
	<path class="st0" d="M46.3,35.9v-10c0-7.7-6.3-14-14-14l0,0c-7.7,0-14,6.3-14,14v6.9c0,3.9-3.2,7.1-7.1,7.1l0,0h0.1
		c-2.2,0-4,1.8-4,4v8h33"/>
	<g>
		<line class="st0" x1="27.3" y1="45.9" x2="29.3" y2="45.9"/>
		<line class="st0" x1="31.3" y1="45.9" x2="33.3" y2="45.9"/>
		<line class="st0" x1="35.3" y1="45.9" x2="37.3" y2="45.9"/>
	</g>
	<g>
		<line class="st0" x1="26.3" y1="7.9" x2="26.3" y2="12.9"/>
		<line class="st0" x1="22.3" y1="7.9" x2="22.3" y2="15.9"/>
	</g>
	<g>
		<line class="st0" x1="38.3" y1="7.9" x2="38.3" y2="12.9"/>
		<line class="st0" x1="42.3" y1="7.9" x2="42.3" y2="15.9"/>
	</g>
	<line class="st0" x1="0.3" y1="51.9" x2="35.3" y2="51.9"/>
	<g>
		<ellipse transform="matrix(0.7071 -0.7071 0.7071 0.7071 -8.8715 30.4324)" class="st0" cx="32.3" cy="25.9" rx="10" ry="10"/>
		<g>
			<line class="st0" x1="37.2" y1="21" x2="35.8" y2="22.4"/>
			<line class="st0" x1="27.4" y1="30.8" x2="28.8" y2="29.4"/>
		</g>
		<ellipse transform="matrix(0.7071 -0.7071 0.7071 0.7071 -8.8715 30.4324)" class="st0" cx="32.3" cy="25.9" rx="2" ry="2"/>
		<g>
			<line class="st0" x1="27.4" y1="21" x2="28.8" y2="22.4"/>
		</g>
		<g>
			<line class="st0" x1="32.3" y1="32.9" x2="32.3" y2="30.9"/>
			<line class="st0" x1="32.3" y1="18.9" x2="32.3" y2="20.9"/>
		</g>
		<g>
			<line class="st0" x1="39.3" y1="25.9" x2="37.3" y2="25.9"/>
			<line class="st0" x1="25.3" y1="25.9" x2="27.3" y2="25.9"/>
		</g>
		<line class="st0" x1="36.5" y1="30.1" x2="39.4" y2="33"/>
	</g>
	<path class="st0" d="M1.3,8.9v11c0,0.6,0.4,1,1,1h1.8c0.7,0,1.2,0.6,1.2,1.2l0,0c0,0.5-0.3,0.9-0.7,1.1L2,24.5
		c-0.4,0.2-0.7,0.6-0.7,1.1l0,0c0,0.7,0.6,1.2,1.2,1.2H4c0.7,0,1.2,0.6,1.2,1.2l0,0c0,0.5-0.3,0.9-0.7,1.1l-2.6,1.3
		c-0.4,0.2-0.7,0.6-0.7,1.1l0,0c0,0.7,0.6,1.2,1.2,1.2h1.5c0.7,0,1.2,0.6,1.2,1.2l0,0c0,0.5-0.3,0.9-0.7,1.1l-2.6,1.3
		c-0.4,0.2-0.7,0.6-0.7,1.1l0,0c0,0.7,0.6,1.2,1.2,1.2h1.5c0.7,0,1.2,0.6,1.2,1.2l0,0c0,0.5-0.3,0.9-0.7,1.1l-2.6,1.3
		C1.3,42.4,1,42.8,1,43.3l0,0c0,0.7,0.6,1.2,1.2,1.2h4.5"/>
</g>
<g>
	<g>
		<polygon class="st0" points="62.5,54 52.5,30 42.5,54 50.5,52 50.5,58 54.5,58 54.5,52 		"/>
	</g>
</g>
</svg>
