<?xml version="1.0" encoding="utf-8"?>
<!-- Generator: Adobe Illustrator 20.0.0, SVG Export Plug-In . SVG Version: 6.00 Build 0)  -->
<svg version="1.1" id="icons" xmlns="http://www.w3.org/2000/svg" xmlns:xlink="http://www.w3.org/1999/xlink" x="0px" y="0px"
	 viewBox="0 0 64 56" style="enable-background:new 0 0 64 56;" xml:space="preserve">
<style type="text/css">
	.st0{fill:none;stroke:#4ac54a;stroke-width:2;stroke-miterlimit:10;}
</style>
<title>sq 29, customer engagement, handshake, partner, hands, agreement, speech bubble, contract</title>
<g>
	<path class="st0" d="M33,47.9l1.9,1.2c1.5,0.9,1.9,2.9,1,4.4l0,0c-0.9,1.5-2.9,1.9-4.4,1c0,0,0,0,0,0l-1.5-0.9"/>
	<path class="st0" d="M36.4,42.5l5,3.2c1.5,0.9,1.9,2.9,1,4.4l0,0c-0.9,1.5-2.9,1.9-4.4,1c0,0,0,0,0,0l-5-3.2"/>
	<path class="st0" d="M39.8,37.1l8.2,5.2c1.5,0.9,1.9,2.9,1,4.4l0,0c-0.9,1.5-2.9,1.9-4.4,1c0,0,0,0,0,0l-8.2-5.2"/>
	<polyline class="st0" points="54.1,38 55.1,36.1 56.8,35.1 64,35.1 	"/>
	<path class="st0" d="M13,39.6l0.1,0.1c1.4,0.9,1.8,2.8,0.9,4.2l0,0c-0.9,1.4-2.8,1.8-4.2,0.9l-0.1-0.1c-1.4-0.9-1.8-2.8-0.9-4.2
		l0,0C9.7,39.1,11.6,38.7,13,39.6C13,39.6,13,39.6,13,39.6z"/>
	<path class="st0" d="M28.9,49.3l0.1,0.1c1.4,0.9,1.8,2.8,0.9,4.2l0,0c-0.9,1.4-2.8,1.8-4.2,0.9l-0.1-0.1c-1.4-0.9-1.8-2.8-0.9-4.2
		l0,0C25.6,48.9,27.5,48.4,28.9,49.3z"/>
	<path class="st0" d="M19.8,40.5L19.8,40.5c1.4,0.9,1.9,2.8,0.9,4.3l0,0l-1.5,2.3c-0.9,1.4-2.8,1.9-4.3,0.9c0,0,0,0,0,0l0,0
		c-1.4-0.9-1.9-2.8-0.9-4.3l1.5-2.3C16.5,40,18.4,39.6,19.8,40.5C19.8,40.5,19.8,40.5,19.8,40.5z"/>
	<path class="st0" d="M26,42.5L26,42.5c1.4,0.9,1.9,2.8,0.9,4.3l-2.4,3.7c-0.9,1.4-2.8,1.9-4.3,0.9c0,0,0,0,0,0l0,0
		c-1.4-0.9-1.9-2.8-0.9-4.3l2.4-3.7C22.6,42,24.5,41.6,26,42.5z"/>
	<polyline class="st0" points="0,35 7,35 9,36 10.2,38.6 	"/>
	<path class="st0" d="M34,20h-2l-6.6,7c-1.3,1.3-1.3,3.4,0,4.7c0,0,0,0,0.1,0.1l0,0c1.3,1.2,3.4,1.2,4.6-0.1l2.6-2.6
		c0.8-0.7,1.8-1.1,2.8-1.1H37l17.4,10.9c1.5,0.9,2,2.9,1,4.4c0,0,0,0,0,0.1l0,0c-1,1.5-2.9,1.9-4.4,1l-11.3-7.2"/>
</g>
<g>
	<path class="st0" d="M44,24h1.9l4.2-4h12c0.6,0,1-0.4,1-1V2c0-0.6-0.4-1-1-1H37c-0.6,0-1,0.4-1,1v17c0,0.6,0.4,1,1,1h7V24z"/>
	<line class="st0" x1="44" y1="10" x2="46" y2="10"/>
	<line class="st0" x1="48" y1="10" x2="50" y2="10"/>
	<line class="st0" x1="52" y1="10" x2="54" y2="10"/>
	<g>
		<path class="st0" d="M20,20v4h-1.9L14,20H2c-0.6,0-1-0.4-1-1V2c0-0.6,0.4-1,1-1h25c0.6,0,1,0.4,1,1v17c0,0.6-0.4,1-1,1H20z"/>
		<line class="st0" x1="20" y1="10" x2="18" y2="10"/>
		<line class="st0" x1="16" y1="10" x2="14" y2="10"/>
		<line class="st0" x1="12" y1="10" x2="10" y2="10"/>
	</g>
</g>
</svg>
