<?xml version="1.0" encoding="utf-8"?>
<!-- Generator: Adobe Illustrator 21.1.0, SVG Export Plug-In . SVG Version: 6.00 Build 0)  -->
<svg version="1.1" id="icons" xmlns="http://www.w3.org/2000/svg" xmlns:xlink="http://www.w3.org/1999/xlink" x="0px" y="0px"
	 viewBox="0 0 64 54" style="enable-background:new 0 0 64 54;" xml:space="preserve">
<style type="text/css">
	.st0{fill:none;stroke:#4ac54a;stroke-width:2;stroke-miterlimit:10;}
</style>
<title>sq 145, credit card, money, electronic payment, bank, debt, payment method</title>
<path class="st0" d="M9,15h52c1.1,0,2,0.9,2,2v34c0,1.1-0.9,2-2,2H9c-1.1,0-2-0.9-2-2V17C7,15.9,7.9,15,9,15z"/>
<path class="st0" d="M10,34h8c0.6,0,1-0.4,1-1v-6c0-0.6-0.4-1-1-1h-8"/>
<line class="st0" x1="26" y1="28" x2="26" y2="33"/>
<polyline class="st0" points="28,29 30,29 30,33 "/>
<line class="st0" x1="34" y1="28" x2="34" y2="33"/>
<polyline class="st0" points="40,32 38,32 38,28 "/>
<line class="st0" x1="43" y1="28" x2="43" y2="33"/>
<line class="st0" x1="47" y1="28" x2="47" y2="33"/>
<rect x="12" y="38" class="st0" width="8" height="4"/>
<rect x="24" y="38" class="st0" width="8" height="4"/>
<rect x="36" y="38" class="st0" width="8" height="4"/>
<rect x="48" y="38" class="st0" width="8" height="4"/>
<line class="st0" x1="59" y1="20" x2="57" y2="20"/>
<line class="st0" x1="55" y1="20" x2="53" y2="20"/>
<line class="st0" x1="51" y1="20" x2="49" y2="20"/>
<line class="st0" x1="11" y1="20" x2="13" y2="20"/>
<path class="st0" d="M4,11h56V3c0-1.1-0.9-2-2-2H3C1.9,1,1,1.9,1,3v3h56"/>
<path class="st0" d="M1,9.1V37c0,1.1,0.9,2,2,2h1"/>
<line class="st0" x1="57" y1="48" x2="59" y2="48"/>
<line class="st0" x1="11" y1="48" x2="13" y2="48"/>
<line class="st0" x1="15" y1="30" x2="10" y2="30"/>
</svg>
