<?xml version="1.0" encoding="utf-8"?>
<!-- Generator: Adobe Illustrator 20.1.0, SVG Export Plug-In . SVG Version: 6.00 Build 0)  -->
<svg version="1.1" id="icons" xmlns="http://www.w3.org/2000/svg" xmlns:xlink="http://www.w3.org/1999/xlink" x="0px" y="0px"
	 viewBox="0 0 46 64" style="enable-background:new 0 0 46 64;" xml:space="preserve">
<style type="text/css">
	.st0{fill:none;stroke:#4ac54a;stroke-width:2;stroke-miterlimit:10;}
</style>
<title>sq458, guarantee, badge, security, document</title>
<g>
	<g>
		<line class="st0" x1="25.9" y1="11" x2="42" y2="11"/>
		<line class="st0" x1="29.9" y1="7" x2="42" y2="7"/>
	</g>
	<line class="st0" x1="8" y1="11" x2="12" y2="11"/>
	<polyline class="st0" points="13,63 1,63 1,12.8 11,5 11,3 1,3 1,10 	"/>
	<polyline class="st0" points="1,15 15,15 15,1 18.1,1 45,1 45,63 32.8,63 	"/>
	<circle class="st0" cx="23" cy="37" r="7"/>
	<polyline class="st0" points="18.8,47.9 20.9,50 25.1,50 27.2,47.9 27.8,47.7 30.7,47.7 33.7,44.7 33.7,41.8 33.9,41.2 36,39.1 
		36,34.9 33.9,32.8 33.7,32.2 33.7,29.3 30.7,26.3 27.8,26.3 27.2,26.1 25.1,24 20.9,24 18.8,26.1 18.2,26.3 15.3,26.3 12.3,29.3 
		12.3,32.2 12.1,32.8 10,34.9 10,39.1 12.1,41.2 12.3,41.8 12.3,44.7 16,48.1 16,63 18,63 22,59 24,59 28,63 30,63 30,50 	"/>
	<line class="st0" x1="15" y1="20" x2="31.1" y2="20"/>
</g>
</svg>
