<?xml version="1.0" encoding="utf-8"?>
<!-- Generator: Adobe Illustrator 21.1.0, SVG Export Plug-In . SVG Version: 6.00 Build 0)  -->
<svg version="1.1" id="icons" xmlns="http://www.w3.org/2000/svg" xmlns:xlink="http://www.w3.org/1999/xlink" x="0px" y="0px"
	 viewBox="0 0 64 64" style="enable-background:new 0 0 64 64;" xml:space="preserve">
<style type="text/css">
	.st0{fill:none;stroke:#4ac54a;stroke-width:2;stroke-miterlimit:10;}
</style>
<title>sq 228 ,managed service, clipboard, check mark, sign, work, administration</title>
<g>
	<g>
		<polyline class="st0" points="29,8 29,13 15.1,13 15.1,8 		"/>
		<polyline class="st0" points="15.1,11 11,11 11,5 17,5 17,3 19,1 25,1 27,3 27,5 33,5 33,11 29,11 		"/>
		<line class="st0" x1="24" y1="5" x2="20" y2="5"/>
	</g>
	<polyline class="st0" points="35.8,7 43,7 43,21 	"/>
	<polyline class="st0" points="1,60 1,7 7.8,7 	"/>
	<polyline class="st0" points="38,59 5,59 5,11 11.9,11 	"/>
	<polyline class="st0" points="32,11 39,11 39,21 	"/>
	<line class="st0" x1="34" y1="18" x2="26" y2="18"/>
</g>
<line class="st0" x1="2" y1="63" x2="0" y2="63"/>
<g>
	<path class="st0" d="M4,63h37v-6h5v-3l-1.9-2.3c-1.4-1.8-2.8-3.6-4.1-5.5l-4.2-6.1c-1.2-1.2-1.2-3.1,0-4.2l0,0l0,0
		c1.2-1.2,3.1-1.2,4.2,0l0,0l4.5,5.7c0.3,0.3,0.6,0.5,1.1,0.5l0,0c0.7,0,1.4-0.6,1.4-1.4c0,0,0,0,0,0v-4.1"/>
	<polyline class="st0" points="59,64 59,57 49,57 	"/>
	<polyline class="st0" points="35.7,36 31,36 29,34 31,32 63,32 63,36 43.9,36 	"/>
	<line class="st0" x1="59" y1="57" x2="59" y2="39"/>
	<path class="st0" d="M37,32.1l8-8.1h2l10.1,3.3c1,0.4,1.7,1.3,1.9,2.4v2.1"/>
</g>
<line class="st0" x1="47" y1="29" x2="47" y2="32"/>
<line class="st0" x1="29" y1="34" x2="27.1" y2="34"/>
<line class="st0" x1="45" y1="62" x2="45" y2="60"/>
<line class="st0" x1="24.4" y1="37.2" x2="25.8" y2="35.9"/>
<polyline class="st0" points="34.4,27.2 31.4,24.1 19.5,36 14.7,31.3 11.7,34.3 19.5,42.1 19.5,42.1 19.5,42.1 23.2,38.4 "/>
<line class="st0" x1="39" y1="23" x2="39" y2="25"/>
<line class="st0" x1="18" y1="49" x2="10" y2="49"/>
<line class="st0" x1="18" y1="53" x2="10" y2="53"/>
<line class="st0" x1="36" y1="53" x2="28" y2="53"/>
</svg>
