<?xml version="1.0" encoding="utf-8"?>
<!-- Generator: Adobe Illustrator 21.1.0, SVG Export Plug-In . SVG Version: 6.00 Build 0)  -->
<svg version="1.1" id="icons" xmlns="http://www.w3.org/2000/svg" xmlns:xlink="http://www.w3.org/1999/xlink" x="0px" y="0px"
	 viewBox="0 0 57 64" style="enable-background:new 0 0 57 64;" xml:space="preserve">
<style type="text/css">
	.st0{fill:none;stroke:#4ac54a;stroke-width:2;stroke-miterlimit:10;}
</style>
<title>sq 179, umbrella, protection, funds, money, income, savings, coin</title>
<g>
	<line class="st0" x1="0" y1="63" x2="56" y2="63"/>
	<polyline class="st0" points="32,55 49,55 49,59 32,59 	"/>
	<polyline class="st0" points="32,59 49,59 49,63 32,63 	"/>
	<g>
		<line class="st0" x1="28.9" y1="0" x2="28.9" y2="3.8"/>
		<path class="st0" d="M23.5,58.3L23.5,58.3c0,1.5,1.2,2.7,2.7,2.7c0,0,0,0,0,0l0,0c1.5,0,2.7-1.2,2.7-2.7l0,0V28"/>
		<path class="st0" d="M2,30C2,15.1,14.1,3,29,3s27,12.1,27,27"/>
		<path class="st0" d="M15,30c0-14.9,6.3-27,14-27s14,12.1,14,27"/>
		<path class="st0" d="M2,29v1h1c3.2-1.3,6.8-1.4,10.1-0.3L14,30h3.2c3.1-1.3,6.5-2,9.9-2H31c3.3,0,6.5,0.6,9.6,1.9l0.3,0.1H44
			c3.2-1.3,6.8-1.4,10.1-0.3L55,30h1v-1"/>
	</g>
	<g>
		<g>
			<circle class="st0" cx="16" cy="46" r="8"/>
			<line class="st0" x1="16" y1="43.8" x2="16" y2="48.2"/>
		</g>
		<polyline class="st0" points="21,59 7,59 7,55 24,55 		"/>
		<polyline class="st0" points="7,63 7,59 21,59 		"/>
	</g>
	<rect x="33" y="51" class="st0" width="17" height="4"/>
	<rect x="33" y="47" class="st0" width="17" height="4"/>
	<rect x="33" y="43" class="st0" width="17" height="4"/>
	<polyline class="st0" points="32,39 47,39 47,43 32,43 	"/>
	<line class="st0" x1="29" y1="15" x2="29" y2="17"/>
	<line class="st0" x1="29" y1="19" x2="29" y2="21"/>
	<line class="st0" x1="29" y1="23" x2="29" y2="25"/>
</g>
</svg>
