<?xml version="1.0" encoding="utf-8"?>
<!-- Generator: Adobe Illustrator 20.0.0, SVG Export Plug-In . SVG Version: 6.00 Build 0)  -->
<svg version="1.1" id="icons" xmlns="http://www.w3.org/2000/svg" xmlns:xlink="http://www.w3.org/1999/xlink" x="0px" y="0px"
	 viewBox="0 0 64 50.2" style="enable-background:new 0 0 64 50.2;" xml:space="preserve">
<style type="text/css">
	.st0{fill:none;stroke:#4ac54a;stroke-width:2;stroke-miterlimit:10;}
</style>
<title>sq 62, house cleaning, home, buildings, apartment, realm estate, property</title>
<line class="st0" x1="10" y1="46.3" x2="10" y2="20.3"/>
<line class="st0" x1="54" y1="20.3" x2="54" y2="46.3"/>
<rect x="14" y="28.3" class="st0" width="14" height="12"/>
<polyline class="st0" points="50,32.3 50,45.3 36,45.3 36,28.3 39,28.3 "/>
<polyline class="st0" points="20.9,10.4 31.7,1.3 58,23.3 "/>
<line class="st0" x1="6" y1="23.3" x2="12.7" y2="17.6"/>
<g>
	<circle class="st0" cx="32" cy="17.3" r="5"/>
	<line class="st0" x1="32" y1="12.3" x2="32" y2="22.3"/>
	<line class="st0" x1="37" y1="17.3" x2="27" y2="17.3"/>
</g>
<line class="st0" x1="21" y1="28.3" x2="21" y2="40.3"/>
<line class="st0" x1="28" y1="34.6" x2="14" y2="34.6"/>
<line class="st0" x1="64" y1="49.2" x2="0" y2="49.2"/>
<line class="st0" x1="45" y1="37.3" x2="47" y2="37.3"/>
<line class="st0" x1="51" y1="17.6" x2="51" y2="3.3"/>
<polyline class="st0" points="48,4.3 43,4.3 43,10.8 "/>
<g>
	<path class="st0" d="M17,9.3c0,2.8-2.2,5-5,5"/>
	<path class="st0" d="M22,14.3c-2.8,0-5-2.2-5-5"/>
	<path class="st0" d="M17,19.3c0-2.8-2.2-5-5-5"/>
	<path class="st0" d="M22,14.3c-2.8,0-5,2.2-5,5"/>
</g>
<g>
	<path class="st0" d="M46,23.3c0,2.8-2.2,5-5,5"/>
	<path class="st0" d="M51,28.3c-2.8,0-5-2.2-5-5"/>
	<path class="st0" d="M46,33.3c0-2.8-2.2-5-5-5"/>
	<path class="st0" d="M51,28.3c-2.8,0-5,2.2-5,5"/>
</g>
</svg>
