<svg xmlns="http://www.w3.org/2000/svg" viewBox="0 0 32 32"><title>7-Artwork</title><g id="_7-Artwork" fill="#4ac54a" data-name="7-Artwork"><path d="M5,0H1A1,1,0,0,0,0,1V5A1,1,0,0,0,1,6H5A1,1,0,0,0,6,5V1A1,1,0,0,0,5,0ZM4,4H2V2H4Z"/><path d="M31,0H27a1,1,0,0,0-1,1V5a1,1,0,0,0,1,1h4a1,1,0,0,0,1-1V1A1,1,0,0,0,31,0ZM30,4H28V2h2Z"/><path d="M5,26H1a1,1,0,0,0-1,1v4a1,1,0,0,0,1,1H5a1,1,0,0,0,1-1V27A1,1,0,0,0,5,26ZM4,30H2V28H4Z"/><path d="M31,26H27a1,1,0,0,0-1,1v4a1,1,0,0,0,1,1h4a1,1,0,0,0,1-1V27A1,1,0,0,0,31,26Zm-1,4H28V28h2Z"/><polygon points="17 21 17 17 21 17 21 15 17 15 17 11 15 11 15 15 11 15 11 17 15 17 15 21 17 21"/><rect x="9" y="2" width="2" height="2"/><rect x="13" y="2" width="2" height="2"/><rect x="17" y="2" width="2" height="2"/><rect x="21" y="2" width="2" height="2"/><rect x="9" y="28" width="2" height="2"/><rect x="13" y="28" width="2" height="2"/><rect x="17" y="28" width="2" height="2"/><rect x="21" y="28" width="2" height="2"/><rect x="28" y="9" width="2" height="2"/><rect x="28" y="13" width="2" height="2"/><rect x="28" y="17" width="2" height="2"/><rect x="28" y="21" width="2" height="2"/><rect x="2" y="9" width="2" height="2"/><rect x="2" y="13" width="2" height="2"/><rect x="2" y="17" width="2" height="2"/><rect x="2" y="21" width="2" height="2"/></g></svg>